<mxfile host="app.diagrams.net" agent="Mozilla/5.0 (Windows NT 10.0; Win64; x64; rv:128.0) Gecko/20100101 Firefox/128.0" version="25.0.3">
  <diagram name="Страница — 1" id="nsoFpJFIKBhz9OUIHFn0">
    <mxGraphModel dx="1290" dy="566" grid="1" gridSize="10" guides="1" tooltips="1" connect="1" arrows="1" fold="1" page="1" pageScale="1" pageWidth="827" pageHeight="1169" math="0" shadow="0">
      <root>
        <mxCell id="0" />
        <mxCell id="1" parent="0" />
        <mxCell id="9TNPJIG9Ui-VVeoEJdtJ-1" value="server" style="ellipse;shape=cloud;whiteSpace=wrap;html=1;" vertex="1" parent="1">
          <mxGeometry x="150" y="240" width="200" height="150" as="geometry" />
        </mxCell>
        <mxCell id="9TNPJIG9Ui-VVeoEJdtJ-2" value="&lt;div&gt;client&lt;/div&gt;&lt;div&gt;(host)&lt;br&gt;&lt;/div&gt;" style="ellipse;whiteSpace=wrap;html=1;" vertex="1" parent="1">
          <mxGeometry x="500" y="430" width="120" height="80" as="geometry" />
        </mxCell>
        <mxCell id="9TNPJIG9Ui-VVeoEJdtJ-3" value="&lt;div&gt;server&lt;/div&gt;&lt;div&gt;(Mysql)&lt;br&gt;&lt;/div&gt;" style="ellipse;shape=cloud;whiteSpace=wrap;html=1;" vertex="1" parent="1">
          <mxGeometry x="170" y="20" width="120" height="80" as="geometry" />
        </mxCell>
        <mxCell id="9TNPJIG9Ui-VVeoEJdtJ-4" value="" style="endArrow=classic;html=1;rounded=0;entryX=0.8;entryY=0.8;entryDx=0;entryDy=0;entryPerimeter=0;exitX=0.575;exitY=0.187;exitDx=0;exitDy=0;exitPerimeter=0;" edge="1" parent="1" source="9TNPJIG9Ui-VVeoEJdtJ-1" target="9TNPJIG9Ui-VVeoEJdtJ-3">
          <mxGeometry width="50" height="50" relative="1" as="geometry">
            <mxPoint x="390" y="320" as="sourcePoint" />
            <mxPoint x="440" y="270" as="targetPoint" />
          </mxGeometry>
        </mxCell>
        <mxCell id="9TNPJIG9Ui-VVeoEJdtJ-5" value="&lt;div&gt;отправка&lt;/div&gt;&lt;div&gt;&amp;nbsp;запросов&lt;/div&gt;" style="edgeLabel;html=1;align=center;verticalAlign=middle;resizable=0;points=[];" vertex="1" connectable="0" parent="9TNPJIG9Ui-VVeoEJdtJ-4">
          <mxGeometry x="0.125" relative="1" as="geometry">
            <mxPoint x="34" y="-2" as="offset" />
          </mxGeometry>
        </mxCell>
        <mxCell id="9TNPJIG9Ui-VVeoEJdtJ-6" value="" style="endArrow=classic;html=1;rounded=0;entryX=0.25;entryY=0.25;entryDx=0;entryDy=0;entryPerimeter=0;exitX=0.242;exitY=0.85;exitDx=0;exitDy=0;exitPerimeter=0;" edge="1" parent="1" source="9TNPJIG9Ui-VVeoEJdtJ-3" target="9TNPJIG9Ui-VVeoEJdtJ-1">
          <mxGeometry width="50" height="50" relative="1" as="geometry">
            <mxPoint x="390" y="320" as="sourcePoint" />
            <mxPoint x="440" y="270" as="targetPoint" />
          </mxGeometry>
        </mxCell>
        <mxCell id="9TNPJIG9Ui-VVeoEJdtJ-7" value="&lt;div&gt;получение&lt;/div&gt;&lt;div&gt;результатов&lt;/div&gt;&lt;div&gt;запросов&lt;/div&gt;" style="edgeLabel;html=1;align=center;verticalAlign=middle;resizable=0;points=[];" vertex="1" connectable="0" parent="9TNPJIG9Ui-VVeoEJdtJ-6">
          <mxGeometry x="-0.2573" y="2" relative="1" as="geometry">
            <mxPoint x="-41" as="offset" />
          </mxGeometry>
        </mxCell>
        <mxCell id="9TNPJIG9Ui-VVeoEJdtJ-8" value="&lt;div&gt;client&lt;/div&gt;" style="ellipse;whiteSpace=wrap;html=1;" vertex="1" parent="1">
          <mxGeometry x="500" y="110" width="120" height="80" as="geometry" />
        </mxCell>
        <mxCell id="9TNPJIG9Ui-VVeoEJdtJ-9" value="" style="endArrow=classic;html=1;rounded=0;entryX=0;entryY=0.5;entryDx=0;entryDy=0;exitX=0.8;exitY=0.8;exitDx=0;exitDy=0;exitPerimeter=0;" edge="1" parent="1" source="9TNPJIG9Ui-VVeoEJdtJ-1" target="9TNPJIG9Ui-VVeoEJdtJ-2">
          <mxGeometry width="50" height="50" relative="1" as="geometry">
            <mxPoint x="390" y="320" as="sourcePoint" />
            <mxPoint x="440" y="270" as="targetPoint" />
          </mxGeometry>
        </mxCell>
        <mxCell id="9TNPJIG9Ui-VVeoEJdtJ-11" value="&lt;div&gt;получение&lt;/div&gt;&lt;div&gt;ответных&lt;/div&gt;&lt;div&gt;сообщений&lt;/div&gt;" style="edgeLabel;html=1;align=center;verticalAlign=middle;resizable=0;points=[];rotation=30;" vertex="1" connectable="0" parent="9TNPJIG9Ui-VVeoEJdtJ-9">
          <mxGeometry x="-0.1419" y="-2" relative="1" as="geometry">
            <mxPoint x="-14" y="34" as="offset" />
          </mxGeometry>
        </mxCell>
        <mxCell id="9TNPJIG9Ui-VVeoEJdtJ-10" value="" style="endArrow=classic;html=1;rounded=0;entryX=0.96;entryY=0.7;entryDx=0;entryDy=0;entryPerimeter=0;exitX=0;exitY=0;exitDx=0;exitDy=0;" edge="1" parent="1" source="9TNPJIG9Ui-VVeoEJdtJ-2" target="9TNPJIG9Ui-VVeoEJdtJ-1">
          <mxGeometry width="50" height="50" relative="1" as="geometry">
            <mxPoint x="390" y="320" as="sourcePoint" />
            <mxPoint x="440" y="270" as="targetPoint" />
          </mxGeometry>
        </mxCell>
        <mxCell id="9TNPJIG9Ui-VVeoEJdtJ-12" value="&lt;div&gt;отправка&lt;/div&gt;&lt;div&gt;сообщений&lt;/div&gt;" style="edgeLabel;html=1;align=center;verticalAlign=middle;resizable=0;points=[];rotation=30;" vertex="1" connectable="0" parent="9TNPJIG9Ui-VVeoEJdtJ-10">
          <mxGeometry x="0.3742" y="1" relative="1" as="geometry">
            <mxPoint x="44" y="-6" as="offset" />
          </mxGeometry>
        </mxCell>
        <mxCell id="9TNPJIG9Ui-VVeoEJdtJ-13" value="" style="endArrow=classic;html=1;rounded=0;entryX=-0.008;entryY=0.613;entryDx=0;entryDy=0;entryPerimeter=0;exitX=0.88;exitY=0.25;exitDx=0;exitDy=0;exitPerimeter=0;" edge="1" parent="1" source="9TNPJIG9Ui-VVeoEJdtJ-1" target="9TNPJIG9Ui-VVeoEJdtJ-8">
          <mxGeometry width="50" height="50" relative="1" as="geometry">
            <mxPoint x="390" y="300" as="sourcePoint" />
            <mxPoint x="440" y="250" as="targetPoint" />
          </mxGeometry>
        </mxCell>
        <mxCell id="9TNPJIG9Ui-VVeoEJdtJ-16" value="&lt;div&gt;получение&lt;/div&gt;&lt;div&gt;ответных&lt;/div&gt;&lt;div&gt;сообщений&lt;/div&gt;" style="edgeLabel;html=1;align=center;verticalAlign=middle;resizable=0;points=[];rotation=-45;" vertex="1" connectable="0" parent="9TNPJIG9Ui-VVeoEJdtJ-13">
          <mxGeometry x="0.3166" relative="1" as="geometry">
            <mxPoint x="-40" y="-10" as="offset" />
          </mxGeometry>
        </mxCell>
        <mxCell id="9TNPJIG9Ui-VVeoEJdtJ-14" value="" style="endArrow=classic;html=1;rounded=0;entryX=0.905;entryY=0.413;entryDx=0;entryDy=0;entryPerimeter=0;exitX=0;exitY=1;exitDx=0;exitDy=0;" edge="1" parent="1" source="9TNPJIG9Ui-VVeoEJdtJ-8" target="9TNPJIG9Ui-VVeoEJdtJ-1">
          <mxGeometry width="50" height="50" relative="1" as="geometry">
            <mxPoint x="390" y="300" as="sourcePoint" />
            <mxPoint x="440" y="250" as="targetPoint" />
          </mxGeometry>
        </mxCell>
        <mxCell id="9TNPJIG9Ui-VVeoEJdtJ-15" value="&lt;div&gt;отправка&lt;/div&gt;&lt;div&gt;сообщений&lt;/div&gt;" style="edgeLabel;html=1;align=center;verticalAlign=middle;resizable=0;points=[];rotation=-40;" vertex="1" connectable="0" parent="9TNPJIG9Ui-VVeoEJdtJ-14">
          <mxGeometry x="-0.022" y="-2" relative="1" as="geometry">
            <mxPoint x="14" y="22" as="offset" />
          </mxGeometry>
        </mxCell>
        <mxCell id="9TNPJIG9Ui-VVeoEJdtJ-17" value="" style="endArrow=classic;html=1;rounded=0;entryX=0.692;entryY=0.988;entryDx=0;entryDy=0;entryPerimeter=0;exitX=0.708;exitY=0;exitDx=0;exitDy=0;exitPerimeter=0;" edge="1" parent="1" source="9TNPJIG9Ui-VVeoEJdtJ-2" target="9TNPJIG9Ui-VVeoEJdtJ-8">
          <mxGeometry width="50" height="50" relative="1" as="geometry">
            <mxPoint x="390" y="300" as="sourcePoint" />
            <mxPoint x="440" y="250" as="targetPoint" />
          </mxGeometry>
        </mxCell>
        <mxCell id="9TNPJIG9Ui-VVeoEJdtJ-19" value="&lt;div&gt;отправка&lt;/div&gt;&lt;div&gt;сообщений&lt;/div&gt;" style="edgeLabel;html=1;align=center;verticalAlign=middle;resizable=0;points=[];" vertex="1" connectable="0" parent="9TNPJIG9Ui-VVeoEJdtJ-17">
          <mxGeometry x="0.1538" y="1" relative="1" as="geometry">
            <mxPoint x="37" y="9" as="offset" />
          </mxGeometry>
        </mxCell>
        <mxCell id="9TNPJIG9Ui-VVeoEJdtJ-18" value="" style="endArrow=classic;html=1;rounded=0;entryX=0.342;entryY=0.038;entryDx=0;entryDy=0;entryPerimeter=0;exitX=0.333;exitY=1.038;exitDx=0;exitDy=0;exitPerimeter=0;" edge="1" parent="1" source="9TNPJIG9Ui-VVeoEJdtJ-8" target="9TNPJIG9Ui-VVeoEJdtJ-2">
          <mxGeometry width="50" height="50" relative="1" as="geometry">
            <mxPoint x="390" y="300" as="sourcePoint" />
            <mxPoint x="440" y="250" as="targetPoint" />
          </mxGeometry>
        </mxCell>
        <mxCell id="9TNPJIG9Ui-VVeoEJdtJ-20" value="&lt;div&gt;получение&lt;/div&gt;&lt;div&gt;ответных&lt;/div&gt;&lt;div&gt;сообщений&lt;/div&gt;" style="edgeLabel;html=1;align=center;verticalAlign=middle;resizable=0;points=[];" vertex="1" connectable="0" parent="9TNPJIG9Ui-VVeoEJdtJ-18">
          <mxGeometry x="-0.142" y="1" relative="1" as="geometry">
            <mxPoint x="-41" y="14" as="offset" />
          </mxGeometry>
        </mxCell>
      </root>
    </mxGraphModel>
  </diagram>
</mxfile>
